G04 (created by PCBNEW (2013-07-07 BZR 4022)-stable) date 5/6/2015 4:58:16 PM*
%MOIN*%
G04 Gerber Fmt 3.4, Leading zero omitted, Abs format*
%FSLAX34Y34*%
G01*
G70*
G90*
G04 APERTURE LIST*
%ADD10C,0.00590551*%
%ADD11C,0.011811*%
%ADD12C,0.00393701*%
G04 APERTURE END LIST*
G54D10*
G54D11*
X62172Y-66986D02*
X62116Y-66958D01*
X62087Y-66930D01*
X62059Y-66874D01*
X62059Y-66846D01*
X62087Y-66790D01*
X62115Y-66761D01*
X62171Y-66733D01*
X62284Y-66733D01*
X62340Y-66761D01*
X62368Y-66789D01*
X62397Y-66845D01*
X62397Y-66873D01*
X62369Y-66930D01*
X62341Y-66958D01*
X62284Y-66986D01*
X62172Y-66986D01*
X62116Y-67015D01*
X62088Y-67043D01*
X62060Y-67099D01*
X62060Y-67211D01*
X62088Y-67268D01*
X62116Y-67296D01*
X62173Y-67324D01*
X62285Y-67324D01*
X62341Y-67295D01*
X62369Y-67267D01*
X62397Y-67211D01*
X62397Y-67098D01*
X62369Y-67042D01*
X62341Y-67014D01*
X62284Y-66986D01*
X62903Y-66929D02*
X62904Y-67323D01*
X62762Y-66704D02*
X62622Y-67126D01*
X62988Y-67126D01*
X63213Y-67266D02*
X63241Y-67294D01*
X63213Y-67322D01*
X63185Y-67294D01*
X63213Y-67266D01*
X63213Y-67322D01*
X63578Y-66984D02*
X63522Y-66956D01*
X63494Y-66928D01*
X63465Y-66872D01*
X63465Y-66843D01*
X63493Y-66787D01*
X63521Y-66759D01*
X63578Y-66731D01*
X63690Y-66731D01*
X63746Y-66759D01*
X63775Y-66787D01*
X63803Y-66843D01*
X63803Y-66871D01*
X63775Y-66927D01*
X63747Y-66955D01*
X63690Y-66984D01*
X63578Y-66984D01*
X63522Y-67012D01*
X63494Y-67040D01*
X63466Y-67097D01*
X63466Y-67209D01*
X63494Y-67265D01*
X63522Y-67293D01*
X63579Y-67321D01*
X63691Y-67321D01*
X63747Y-67293D01*
X63775Y-67265D01*
X63803Y-67208D01*
X63803Y-67096D01*
X63775Y-67040D01*
X63747Y-67012D01*
X63690Y-66984D01*
X63999Y-66730D02*
X64365Y-66729D01*
X64169Y-66955D01*
X64253Y-66955D01*
X64309Y-66983D01*
X64337Y-67011D01*
X64366Y-67067D01*
X64366Y-67207D01*
X64338Y-67264D01*
X64310Y-67292D01*
X64254Y-67320D01*
X64085Y-67320D01*
X64028Y-67292D01*
X64000Y-67264D01*
X64871Y-66729D02*
X64759Y-66729D01*
X64702Y-66757D01*
X64674Y-66785D01*
X64618Y-66870D01*
X64590Y-66982D01*
X64591Y-67207D01*
X64619Y-67263D01*
X64647Y-67291D01*
X64703Y-67319D01*
X64816Y-67319D01*
X64872Y-67291D01*
X64900Y-67263D01*
X64928Y-67206D01*
X64928Y-67066D01*
X64900Y-67010D01*
X64872Y-66982D01*
X64815Y-66954D01*
X64703Y-66954D01*
X64647Y-66982D01*
X64619Y-67010D01*
X64591Y-67066D01*
X65631Y-67318D02*
X65631Y-66924D01*
X65631Y-66980D02*
X65659Y-66952D01*
X65715Y-66924D01*
X65799Y-66924D01*
X65856Y-66952D01*
X65884Y-67008D01*
X65885Y-67317D01*
X65884Y-67008D02*
X65912Y-66952D01*
X65968Y-66923D01*
X66053Y-66923D01*
X66109Y-66951D01*
X66137Y-67008D01*
X66138Y-67317D01*
X66419Y-67316D02*
X66418Y-66923D01*
X66418Y-66979D02*
X66446Y-66951D01*
X66503Y-66923D01*
X66587Y-66922D01*
X66643Y-66950D01*
X66671Y-67007D01*
X66672Y-67316D01*
X66671Y-67007D02*
X66699Y-66950D01*
X66756Y-66922D01*
X66840Y-66922D01*
X66896Y-66950D01*
X66925Y-67006D01*
X66925Y-67315D01*
X47805Y-66599D02*
X81205Y-66499D01*
X47800Y-64900D02*
X47808Y-67662D01*
X81200Y-64800D02*
X81208Y-67562D01*
X81205Y-66499D02*
X80762Y-66731D01*
X81205Y-66499D02*
X80760Y-66270D01*
X47805Y-66599D02*
X48249Y-66829D01*
X47805Y-66599D02*
X48247Y-66367D01*
X84183Y-49584D02*
X84183Y-49472D01*
X84154Y-49415D01*
X84126Y-49387D01*
X84042Y-49331D01*
X83929Y-49303D01*
X83704Y-49303D01*
X83648Y-49331D01*
X83620Y-49359D01*
X83592Y-49415D01*
X83592Y-49528D01*
X83620Y-49584D01*
X83648Y-49612D01*
X83704Y-49640D01*
X83845Y-49640D01*
X83901Y-49612D01*
X83929Y-49584D01*
X83958Y-49528D01*
X83958Y-49415D01*
X83929Y-49359D01*
X83901Y-49331D01*
X83845Y-49303D01*
X84183Y-50147D02*
X84183Y-50034D01*
X84154Y-49978D01*
X84126Y-49950D01*
X84042Y-49893D01*
X83929Y-49865D01*
X83704Y-49865D01*
X83648Y-49893D01*
X83620Y-49922D01*
X83592Y-49978D01*
X83592Y-50090D01*
X83620Y-50147D01*
X83648Y-50175D01*
X83704Y-50203D01*
X83845Y-50203D01*
X83901Y-50175D01*
X83929Y-50147D01*
X83958Y-50090D01*
X83958Y-49978D01*
X83929Y-49922D01*
X83901Y-49893D01*
X83845Y-49865D01*
X83648Y-50456D02*
X83620Y-50484D01*
X83592Y-50456D01*
X83620Y-50428D01*
X83648Y-50456D01*
X83592Y-50456D01*
X83929Y-50821D02*
X83958Y-50765D01*
X83986Y-50737D01*
X84042Y-50709D01*
X84070Y-50709D01*
X84126Y-50737D01*
X84154Y-50765D01*
X84183Y-50821D01*
X84183Y-50934D01*
X84154Y-50990D01*
X84126Y-51018D01*
X84070Y-51046D01*
X84042Y-51046D01*
X83986Y-51018D01*
X83958Y-50990D01*
X83929Y-50934D01*
X83929Y-50821D01*
X83901Y-50765D01*
X83873Y-50737D01*
X83817Y-50709D01*
X83704Y-50709D01*
X83648Y-50737D01*
X83620Y-50765D01*
X83592Y-50821D01*
X83592Y-50934D01*
X83620Y-50990D01*
X83648Y-51018D01*
X83704Y-51046D01*
X83817Y-51046D01*
X83873Y-51018D01*
X83901Y-50990D01*
X83929Y-50934D01*
X84183Y-51412D02*
X84183Y-51468D01*
X84154Y-51525D01*
X84126Y-51553D01*
X84070Y-51581D01*
X83958Y-51609D01*
X83817Y-51609D01*
X83704Y-51581D01*
X83648Y-51553D01*
X83620Y-51525D01*
X83592Y-51468D01*
X83592Y-51412D01*
X83620Y-51356D01*
X83648Y-51328D01*
X83704Y-51300D01*
X83817Y-51271D01*
X83958Y-51271D01*
X84070Y-51300D01*
X84126Y-51328D01*
X84154Y-51356D01*
X84183Y-51412D01*
X84126Y-51834D02*
X84154Y-51862D01*
X84183Y-51918D01*
X84183Y-52059D01*
X84154Y-52115D01*
X84126Y-52143D01*
X84070Y-52171D01*
X84014Y-52171D01*
X83929Y-52143D01*
X83592Y-51806D01*
X83592Y-52171D01*
X83592Y-52874D02*
X83986Y-52874D01*
X83929Y-52874D02*
X83958Y-52902D01*
X83986Y-52959D01*
X83986Y-53043D01*
X83958Y-53099D01*
X83901Y-53127D01*
X83592Y-53127D01*
X83901Y-53127D02*
X83958Y-53156D01*
X83986Y-53212D01*
X83986Y-53296D01*
X83958Y-53352D01*
X83901Y-53381D01*
X83592Y-53381D01*
X83592Y-53662D02*
X83986Y-53662D01*
X83929Y-53662D02*
X83958Y-53690D01*
X83986Y-53746D01*
X83986Y-53830D01*
X83958Y-53887D01*
X83901Y-53915D01*
X83592Y-53915D01*
X83901Y-53915D02*
X83958Y-53943D01*
X83986Y-53999D01*
X83986Y-54084D01*
X83958Y-54140D01*
X83901Y-54168D01*
X83592Y-54168D01*
X83299Y-38600D02*
X83299Y-64900D01*
X81200Y-38600D02*
X84362Y-38600D01*
X81200Y-64900D02*
X84362Y-64900D01*
X83299Y-64900D02*
X83069Y-64456D01*
X83299Y-64900D02*
X83530Y-64456D01*
X83299Y-38600D02*
X83069Y-39043D01*
X83299Y-38600D02*
X83530Y-39043D01*
G54D12*
X81200Y-38600D02*
X81200Y-39600D01*
X80400Y-38600D02*
X81200Y-38600D01*
X80400Y-64900D02*
X81200Y-64900D01*
X48300Y-64900D02*
X47800Y-64900D01*
X47800Y-38600D02*
X48200Y-38600D01*
X47800Y-39600D02*
X47800Y-38600D01*
X48500Y-64900D02*
X49400Y-64900D01*
X48200Y-64900D02*
X48700Y-64900D01*
X48700Y-64900D02*
X48200Y-64900D01*
X48600Y-64900D02*
X48200Y-64900D01*
X48400Y-64900D02*
X48200Y-64900D01*
X48900Y-64900D02*
X48200Y-64900D01*
X47800Y-39500D02*
X47800Y-64900D01*
X80400Y-38600D02*
X48200Y-38600D01*
X81200Y-64900D02*
X81200Y-39600D01*
X48900Y-64900D02*
X80400Y-64900D01*
M02*
