M48
;DRILL file {Pcbnew (2013-07-07 BZR 4022)-stable} date 5/6/2015 4:58:18 PM
;FORMAT={-:-/ absolute / inch / decimal}
FMAT,2
INCH,TZ
T1C0.032
T2C0.049
T3C0.157
%
G90
G05
M72
T1
X6.07Y-4.15
X6.07Y-4.45
X6.07Y-5.07
X6.07Y-5.37
X6.07Y-6.03
X6.07Y-6.33
X6.37Y-4.15
X6.37Y-4.45
X6.37Y-5.07
X6.37Y-5.37
X6.37Y-6.03
X6.37Y-6.33
X6.57Y-4.15
X6.57Y-4.45
X6.57Y-5.07
X6.57Y-5.37
X6.57Y-6.03
X6.57Y-6.33
X6.77Y-4.15
X6.77Y-4.45
X6.77Y-5.07
X6.77Y-5.37
X6.77Y-6.03
X6.77Y-6.33
T2
X5.06Y-4.46
X5.06Y-4.66
X5.08Y-5.38
X5.08Y-5.58
X5.08Y-5.78
X5.08Y-5.98
X7.8Y-5.04
X7.8Y-5.24
X7.8Y-5.44
T3
X4.94Y-4.02
X4.95Y-6.32
X7.94Y-6.33
X7.96Y-4.03
T0
M30
