G04 (created by PCBNEW (2013-07-07 BZR 4022)-stable) date 4/17/2015 7:39:27 PM*
%MOIN*%
G04 Gerber Fmt 3.4, Leading zero omitted, Abs format*
%FSLAX34Y34*%
G01*
G70*
G90*
G04 APERTURE LIST*
%ADD10C,0.00590551*%
%ADD11C,0.011811*%
%ADD12C,0.012*%
%ADD13C,0.01*%
%ADD14C,0.015*%
G04 APERTURE END LIST*
G54D10*
G54D11*
X55260Y-54606D02*
X55851Y-54606D01*
X55851Y-54831D01*
X55823Y-54887D01*
X55795Y-54915D01*
X55739Y-54943D01*
X55654Y-54943D01*
X55598Y-54915D01*
X55570Y-54887D01*
X55542Y-54831D01*
X55542Y-54606D01*
X55260Y-55478D02*
X55260Y-55197D01*
X55851Y-55197D01*
X55317Y-56012D02*
X55289Y-55984D01*
X55260Y-55900D01*
X55260Y-55843D01*
X55289Y-55759D01*
X55345Y-55703D01*
X55401Y-55675D01*
X55514Y-55647D01*
X55598Y-55647D01*
X55710Y-55675D01*
X55767Y-55703D01*
X55823Y-55759D01*
X55851Y-55843D01*
X55851Y-55900D01*
X55823Y-55984D01*
X55795Y-56012D01*
X55260Y-56715D02*
X55851Y-56715D01*
X55260Y-56996D02*
X55851Y-56996D01*
X55260Y-57334D01*
X55851Y-57334D01*
X55260Y-57615D02*
X55851Y-57615D01*
X55851Y-57840D01*
X55823Y-57896D01*
X55795Y-57924D01*
X55739Y-57952D01*
X55654Y-57952D01*
X55598Y-57924D01*
X55570Y-57896D01*
X55542Y-57840D01*
X55542Y-57615D01*
X55851Y-58206D02*
X55373Y-58206D01*
X55317Y-58234D01*
X55289Y-58262D01*
X55260Y-58318D01*
X55260Y-58431D01*
X55289Y-58487D01*
X55317Y-58515D01*
X55373Y-58543D01*
X55851Y-58543D01*
X55851Y-58740D02*
X55851Y-59077D01*
X55260Y-58909D02*
X55851Y-58909D01*
X54260Y-42944D02*
X54851Y-42944D01*
X54429Y-43140D01*
X54851Y-43337D01*
X54260Y-43337D01*
X54570Y-43619D02*
X54570Y-43815D01*
X54260Y-43900D02*
X54260Y-43619D01*
X54851Y-43619D01*
X54851Y-43900D01*
X54851Y-44068D02*
X54851Y-44406D01*
X54260Y-44237D02*
X54851Y-44237D01*
X54570Y-44603D02*
X54570Y-44800D01*
X54260Y-44884D02*
X54260Y-44603D01*
X54851Y-44603D01*
X54851Y-44884D01*
X54260Y-45475D02*
X54542Y-45278D01*
X54260Y-45137D02*
X54851Y-45137D01*
X54851Y-45362D01*
X54823Y-45418D01*
X54795Y-45446D01*
X54739Y-45475D01*
X54654Y-45475D01*
X54598Y-45446D01*
X54570Y-45418D01*
X54542Y-45362D01*
X54542Y-45137D01*
X54260Y-46178D02*
X54851Y-46178D01*
X54260Y-46459D02*
X54851Y-46459D01*
X54260Y-46796D01*
X54851Y-46796D01*
X54260Y-47077D02*
X54851Y-47077D01*
X54851Y-47302D01*
X54823Y-47359D01*
X54795Y-47387D01*
X54739Y-47415D01*
X54654Y-47415D01*
X54598Y-47387D01*
X54570Y-47359D01*
X54542Y-47302D01*
X54542Y-47077D01*
X54851Y-47668D02*
X54373Y-47668D01*
X54317Y-47696D01*
X54289Y-47724D01*
X54260Y-47780D01*
X54260Y-47893D01*
X54289Y-47949D01*
X54317Y-47977D01*
X54373Y-48005D01*
X54851Y-48005D01*
X54851Y-48202D02*
X54851Y-48540D01*
X54260Y-48371D02*
X54851Y-48371D01*
X53760Y-53481D02*
X53760Y-53144D01*
X53760Y-53312D02*
X54351Y-53312D01*
X54267Y-53256D01*
X54210Y-53200D01*
X54182Y-53144D01*
X54295Y-55056D02*
X54323Y-55084D01*
X54351Y-55140D01*
X54351Y-55281D01*
X54323Y-55337D01*
X54295Y-55365D01*
X54239Y-55393D01*
X54182Y-55393D01*
X54098Y-55365D01*
X53760Y-55028D01*
X53760Y-55393D01*
X54351Y-56940D02*
X54351Y-57306D01*
X54126Y-57109D01*
X54126Y-57193D01*
X54098Y-57249D01*
X54070Y-57278D01*
X54014Y-57306D01*
X53873Y-57306D01*
X53817Y-57278D01*
X53789Y-57249D01*
X53760Y-57193D01*
X53760Y-57024D01*
X53789Y-56968D01*
X53817Y-56940D01*
X54323Y-59218D02*
X54351Y-59162D01*
X54351Y-59077D01*
X54323Y-58993D01*
X54267Y-58937D01*
X54210Y-58909D01*
X54098Y-58880D01*
X54014Y-58880D01*
X53901Y-58909D01*
X53845Y-58937D01*
X53789Y-58993D01*
X53760Y-59077D01*
X53760Y-59134D01*
X53789Y-59218D01*
X53817Y-59246D01*
X54014Y-59246D01*
X54014Y-59134D01*
X53760Y-59499D02*
X54351Y-59499D01*
X53760Y-59837D01*
X54351Y-59837D01*
X53760Y-60118D02*
X54351Y-60118D01*
X54351Y-60258D01*
X54323Y-60343D01*
X54267Y-60399D01*
X54210Y-60427D01*
X54098Y-60455D01*
X54014Y-60455D01*
X53901Y-60427D01*
X53845Y-60399D01*
X53789Y-60343D01*
X53760Y-60258D01*
X53760Y-60118D01*
X75639Y-54565D02*
X75357Y-54762D01*
X75639Y-54902D02*
X75048Y-54902D01*
X75048Y-54677D01*
X75076Y-54621D01*
X75104Y-54593D01*
X75160Y-54565D01*
X75245Y-54565D01*
X75301Y-54593D01*
X75329Y-54621D01*
X75357Y-54677D01*
X75357Y-54902D01*
X75357Y-52400D02*
X75639Y-52400D01*
X75048Y-52596D02*
X75357Y-52400D01*
X75048Y-52203D01*
X75329Y-50009D02*
X75357Y-49925D01*
X75385Y-49897D01*
X75442Y-49869D01*
X75526Y-49869D01*
X75582Y-49897D01*
X75610Y-49925D01*
X75639Y-49981D01*
X75639Y-50206D01*
X75048Y-50206D01*
X75048Y-50009D01*
X75076Y-49953D01*
X75104Y-49925D01*
X75160Y-49897D01*
X75217Y-49897D01*
X75273Y-49925D01*
X75301Y-49953D01*
X75329Y-50009D01*
X75329Y-50206D01*
G54D12*
X65700Y-43150D02*
X65700Y-43250D01*
X65700Y-42850D02*
X65700Y-42750D01*
X63700Y-42450D02*
X65800Y-41950D01*
X65700Y-42050D02*
X65700Y-41500D01*
X67700Y-42850D02*
X65700Y-42850D01*
X67700Y-42850D02*
X67700Y-41500D01*
X63700Y-42450D02*
X63700Y-41500D01*
X63700Y-44500D02*
X63700Y-43550D01*
X63700Y-43550D02*
X65800Y-44050D01*
X67700Y-44500D02*
X67700Y-43150D01*
X67700Y-43150D02*
X65700Y-43150D01*
X65700Y-44500D02*
X65700Y-43950D01*
X61300Y-42050D02*
X60900Y-42050D01*
X61300Y-43950D02*
X60900Y-43950D01*
X61100Y-43750D02*
X61100Y-44150D01*
X60700Y-44500D02*
X60700Y-43300D01*
X60700Y-41500D02*
X60700Y-42700D01*
X60300Y-43300D02*
X61100Y-42700D01*
X60300Y-42700D02*
X61100Y-42700D01*
X61100Y-42700D02*
X61100Y-43300D01*
X61100Y-43300D02*
X60300Y-43300D01*
X60300Y-43300D02*
X60300Y-42700D01*
X60200Y-41000D02*
X60200Y-45000D01*
X60200Y-45000D02*
X68200Y-45000D01*
X68200Y-45000D02*
X68200Y-41000D01*
X68200Y-41000D02*
X60200Y-41000D01*
X65700Y-52350D02*
X65700Y-52450D01*
X65700Y-52050D02*
X65700Y-51950D01*
X63700Y-51650D02*
X65800Y-51150D01*
X65700Y-51250D02*
X65700Y-50700D01*
X67700Y-52050D02*
X65700Y-52050D01*
X67700Y-52050D02*
X67700Y-50700D01*
X63700Y-51650D02*
X63700Y-50700D01*
X63700Y-53700D02*
X63700Y-52750D01*
X63700Y-52750D02*
X65800Y-53250D01*
X67700Y-53700D02*
X67700Y-52350D01*
X67700Y-52350D02*
X65700Y-52350D01*
X65700Y-53700D02*
X65700Y-53150D01*
X61300Y-51250D02*
X60900Y-51250D01*
X61300Y-53150D02*
X60900Y-53150D01*
X61100Y-52950D02*
X61100Y-53350D01*
X60700Y-53700D02*
X60700Y-52500D01*
X60700Y-50700D02*
X60700Y-51900D01*
X60300Y-52500D02*
X61100Y-51900D01*
X60300Y-51900D02*
X61100Y-51900D01*
X61100Y-51900D02*
X61100Y-52500D01*
X61100Y-52500D02*
X60300Y-52500D01*
X60300Y-52500D02*
X60300Y-51900D01*
X60200Y-50200D02*
X60200Y-54200D01*
X60200Y-54200D02*
X68200Y-54200D01*
X68200Y-54200D02*
X68200Y-50200D01*
X68200Y-50200D02*
X60200Y-50200D01*
X65700Y-61950D02*
X65700Y-62050D01*
X65700Y-61650D02*
X65700Y-61550D01*
X63700Y-61250D02*
X65800Y-60750D01*
X65700Y-60850D02*
X65700Y-60300D01*
X67700Y-61650D02*
X65700Y-61650D01*
X67700Y-61650D02*
X67700Y-60300D01*
X63700Y-61250D02*
X63700Y-60300D01*
X63700Y-63300D02*
X63700Y-62350D01*
X63700Y-62350D02*
X65800Y-62850D01*
X67700Y-63300D02*
X67700Y-61950D01*
X67700Y-61950D02*
X65700Y-61950D01*
X65700Y-63300D02*
X65700Y-62750D01*
X61300Y-60850D02*
X60900Y-60850D01*
X61300Y-62750D02*
X60900Y-62750D01*
X61100Y-62550D02*
X61100Y-62950D01*
X60700Y-63300D02*
X60700Y-62100D01*
X60700Y-60300D02*
X60700Y-61500D01*
X60300Y-62100D02*
X61100Y-61500D01*
X60300Y-61500D02*
X61100Y-61500D01*
X61100Y-61500D02*
X61100Y-62100D01*
X61100Y-62100D02*
X60300Y-62100D01*
X60300Y-62100D02*
X60300Y-61500D01*
X60200Y-59800D02*
X60200Y-63800D01*
X60200Y-63800D02*
X68200Y-63800D01*
X68200Y-63800D02*
X68200Y-59800D01*
X68200Y-59800D02*
X60200Y-59800D01*
G54D13*
X79800Y-55400D02*
X79400Y-55400D01*
X79400Y-55400D02*
X79400Y-49400D01*
X79400Y-49400D02*
X79800Y-49400D01*
X79800Y-49400D02*
X79800Y-55400D01*
X76200Y-55400D02*
X76500Y-55400D01*
X76200Y-55400D02*
X76200Y-49400D01*
X76200Y-49400D02*
X76500Y-49400D01*
X79500Y-55400D02*
X76500Y-55400D01*
X79500Y-49400D02*
X76500Y-49400D01*
X52100Y-47600D02*
X52400Y-47600D01*
X52400Y-47600D02*
X52400Y-43600D01*
X52400Y-43600D02*
X52100Y-43600D01*
X48800Y-47600D02*
X48800Y-43600D01*
X48800Y-43600D02*
X49200Y-43600D01*
X49200Y-43600D02*
X49200Y-47600D01*
X49200Y-47600D02*
X48800Y-47600D01*
X49100Y-47600D02*
X52100Y-47600D01*
X52100Y-43600D02*
X49100Y-43600D01*
X49000Y-60800D02*
X49000Y-52800D01*
X52600Y-60800D02*
X52600Y-52800D01*
X49400Y-52800D02*
X49400Y-60800D01*
X52600Y-60800D02*
X49000Y-60800D01*
X49000Y-52800D02*
X49400Y-52800D01*
X52600Y-52800D02*
X52300Y-52800D01*
X49300Y-52800D02*
X52300Y-52800D01*
G54D14*
X79400Y-41500D02*
G75*
G03X79400Y-41500I-900J0D01*
G74*
G01*
X79400Y-63000D02*
G75*
G03X79400Y-63000I-900J0D01*
G74*
G01*
X50900Y-41500D02*
G75*
G03X50900Y-41500I-900J0D01*
G74*
G01*
X50900Y-63000D02*
G75*
G03X50900Y-63000I-900J0D01*
G74*
G01*
G54D12*
X63600Y-46242D02*
X63400Y-45957D01*
X63257Y-46242D02*
X63257Y-45642D01*
X63485Y-45642D01*
X63542Y-45671D01*
X63571Y-45700D01*
X63600Y-45757D01*
X63600Y-45842D01*
X63571Y-45900D01*
X63542Y-45928D01*
X63485Y-45957D01*
X63257Y-45957D01*
X64142Y-46242D02*
X63857Y-46242D01*
X63857Y-45642D01*
X64457Y-45957D02*
X64457Y-46242D01*
X64257Y-45642D02*
X64457Y-45957D01*
X64657Y-45642D01*
X65171Y-46242D02*
X64828Y-46242D01*
X65000Y-46242D02*
X65000Y-45642D01*
X64942Y-45728D01*
X64885Y-45785D01*
X64828Y-45814D01*
X61442Y-40242D02*
X61242Y-39957D01*
X61099Y-40242D02*
X61099Y-39642D01*
X61328Y-39642D01*
X61385Y-39671D01*
X61414Y-39700D01*
X61442Y-39757D01*
X61442Y-39842D01*
X61414Y-39900D01*
X61385Y-39928D01*
X61328Y-39957D01*
X61099Y-39957D01*
X61699Y-39928D02*
X61899Y-39928D01*
X61985Y-40242D02*
X61699Y-40242D01*
X61699Y-39642D01*
X61985Y-39642D01*
X62528Y-40242D02*
X62242Y-40242D01*
X62242Y-39642D01*
X62699Y-40071D02*
X62985Y-40071D01*
X62642Y-40242D02*
X62842Y-39642D01*
X63042Y-40242D01*
X63357Y-39957D02*
X63357Y-40242D01*
X63157Y-39642D02*
X63357Y-39957D01*
X63557Y-39642D01*
X63614Y-40300D02*
X64071Y-40300D01*
X64128Y-39642D02*
X64328Y-40242D01*
X64528Y-39642D01*
X64700Y-39700D02*
X64728Y-39671D01*
X64785Y-39642D01*
X64928Y-39642D01*
X64985Y-39671D01*
X65014Y-39700D01*
X65042Y-39757D01*
X65042Y-39814D01*
X65014Y-39900D01*
X64671Y-40242D01*
X65042Y-40242D01*
X65242Y-39642D02*
X65614Y-39642D01*
X65414Y-39871D01*
X65500Y-39871D01*
X65557Y-39900D01*
X65585Y-39928D01*
X65614Y-39985D01*
X65614Y-40128D01*
X65585Y-40185D01*
X65557Y-40214D01*
X65500Y-40242D01*
X65328Y-40242D01*
X65271Y-40214D01*
X65242Y-40185D01*
X65985Y-39642D02*
X66042Y-39642D01*
X66100Y-39671D01*
X66128Y-39700D01*
X66157Y-39757D01*
X66185Y-39871D01*
X66185Y-40014D01*
X66157Y-40128D01*
X66128Y-40185D01*
X66100Y-40214D01*
X66042Y-40242D01*
X65985Y-40242D01*
X65928Y-40214D01*
X65900Y-40185D01*
X65871Y-40128D01*
X65842Y-40014D01*
X65842Y-39871D01*
X65871Y-39757D01*
X65900Y-39700D01*
X65928Y-39671D01*
X65985Y-39642D01*
X66700Y-39842D02*
X66700Y-40242D01*
X66557Y-39614D02*
X66414Y-40042D01*
X66785Y-40042D01*
X66985Y-39700D02*
X67014Y-39671D01*
X67071Y-39642D01*
X67214Y-39642D01*
X67271Y-39671D01*
X67300Y-39700D01*
X67328Y-39757D01*
X67328Y-39814D01*
X67300Y-39900D01*
X66957Y-40242D01*
X67328Y-40242D01*
X63600Y-55442D02*
X63400Y-55157D01*
X63257Y-55442D02*
X63257Y-54842D01*
X63485Y-54842D01*
X63542Y-54871D01*
X63571Y-54900D01*
X63600Y-54957D01*
X63600Y-55042D01*
X63571Y-55100D01*
X63542Y-55128D01*
X63485Y-55157D01*
X63257Y-55157D01*
X64142Y-55442D02*
X63857Y-55442D01*
X63857Y-54842D01*
X64457Y-55157D02*
X64457Y-55442D01*
X64257Y-54842D02*
X64457Y-55157D01*
X64657Y-54842D01*
X64828Y-54900D02*
X64857Y-54871D01*
X64914Y-54842D01*
X65057Y-54842D01*
X65114Y-54871D01*
X65142Y-54900D01*
X65171Y-54957D01*
X65171Y-55014D01*
X65142Y-55100D01*
X64800Y-55442D01*
X65171Y-55442D01*
X61442Y-49442D02*
X61242Y-49157D01*
X61099Y-49442D02*
X61099Y-48842D01*
X61328Y-48842D01*
X61385Y-48871D01*
X61414Y-48900D01*
X61442Y-48957D01*
X61442Y-49042D01*
X61414Y-49100D01*
X61385Y-49128D01*
X61328Y-49157D01*
X61099Y-49157D01*
X61699Y-49128D02*
X61899Y-49128D01*
X61985Y-49442D02*
X61699Y-49442D01*
X61699Y-48842D01*
X61985Y-48842D01*
X62528Y-49442D02*
X62242Y-49442D01*
X62242Y-48842D01*
X62699Y-49271D02*
X62985Y-49271D01*
X62642Y-49442D02*
X62842Y-48842D01*
X63042Y-49442D01*
X63357Y-49157D02*
X63357Y-49442D01*
X63157Y-48842D02*
X63357Y-49157D01*
X63557Y-48842D01*
X63614Y-49500D02*
X64071Y-49500D01*
X64128Y-48842D02*
X64328Y-49442D01*
X64528Y-48842D01*
X64700Y-48900D02*
X64728Y-48871D01*
X64785Y-48842D01*
X64928Y-48842D01*
X64985Y-48871D01*
X65014Y-48900D01*
X65042Y-48957D01*
X65042Y-49014D01*
X65014Y-49100D01*
X64671Y-49442D01*
X65042Y-49442D01*
X65242Y-48842D02*
X65614Y-48842D01*
X65414Y-49071D01*
X65500Y-49071D01*
X65557Y-49100D01*
X65585Y-49128D01*
X65614Y-49185D01*
X65614Y-49328D01*
X65585Y-49385D01*
X65557Y-49414D01*
X65500Y-49442D01*
X65328Y-49442D01*
X65271Y-49414D01*
X65242Y-49385D01*
X65985Y-48842D02*
X66042Y-48842D01*
X66100Y-48871D01*
X66128Y-48900D01*
X66157Y-48957D01*
X66185Y-49071D01*
X66185Y-49214D01*
X66157Y-49328D01*
X66128Y-49385D01*
X66100Y-49414D01*
X66042Y-49442D01*
X65985Y-49442D01*
X65928Y-49414D01*
X65900Y-49385D01*
X65871Y-49328D01*
X65842Y-49214D01*
X65842Y-49071D01*
X65871Y-48957D01*
X65900Y-48900D01*
X65928Y-48871D01*
X65985Y-48842D01*
X66700Y-49042D02*
X66700Y-49442D01*
X66557Y-48814D02*
X66414Y-49242D01*
X66785Y-49242D01*
X66985Y-48900D02*
X67014Y-48871D01*
X67071Y-48842D01*
X67214Y-48842D01*
X67271Y-48871D01*
X67300Y-48900D01*
X67328Y-48957D01*
X67328Y-49014D01*
X67300Y-49100D01*
X66957Y-49442D01*
X67328Y-49442D01*
X63400Y-64742D02*
X63200Y-64457D01*
X63057Y-64742D02*
X63057Y-64142D01*
X63285Y-64142D01*
X63342Y-64171D01*
X63371Y-64200D01*
X63400Y-64257D01*
X63400Y-64342D01*
X63371Y-64400D01*
X63342Y-64428D01*
X63285Y-64457D01*
X63057Y-64457D01*
X63942Y-64742D02*
X63657Y-64742D01*
X63657Y-64142D01*
X64257Y-64457D02*
X64257Y-64742D01*
X64057Y-64142D02*
X64257Y-64457D01*
X64457Y-64142D01*
X64600Y-64142D02*
X64971Y-64142D01*
X64771Y-64371D01*
X64857Y-64371D01*
X64914Y-64400D01*
X64942Y-64428D01*
X64971Y-64485D01*
X64971Y-64628D01*
X64942Y-64685D01*
X64914Y-64714D01*
X64857Y-64742D01*
X64685Y-64742D01*
X64628Y-64714D01*
X64600Y-64685D01*
X61442Y-59042D02*
X61242Y-58757D01*
X61099Y-59042D02*
X61099Y-58442D01*
X61328Y-58442D01*
X61385Y-58471D01*
X61414Y-58500D01*
X61442Y-58557D01*
X61442Y-58642D01*
X61414Y-58700D01*
X61385Y-58728D01*
X61328Y-58757D01*
X61099Y-58757D01*
X61699Y-58728D02*
X61899Y-58728D01*
X61985Y-59042D02*
X61699Y-59042D01*
X61699Y-58442D01*
X61985Y-58442D01*
X62528Y-59042D02*
X62242Y-59042D01*
X62242Y-58442D01*
X62699Y-58871D02*
X62985Y-58871D01*
X62642Y-59042D02*
X62842Y-58442D01*
X63042Y-59042D01*
X63357Y-58757D02*
X63357Y-59042D01*
X63157Y-58442D02*
X63357Y-58757D01*
X63557Y-58442D01*
X63614Y-59100D02*
X64071Y-59100D01*
X64128Y-58442D02*
X64328Y-59042D01*
X64528Y-58442D01*
X64700Y-58500D02*
X64728Y-58471D01*
X64785Y-58442D01*
X64928Y-58442D01*
X64985Y-58471D01*
X65014Y-58500D01*
X65042Y-58557D01*
X65042Y-58614D01*
X65014Y-58700D01*
X64671Y-59042D01*
X65042Y-59042D01*
X65242Y-58442D02*
X65614Y-58442D01*
X65414Y-58671D01*
X65500Y-58671D01*
X65557Y-58700D01*
X65585Y-58728D01*
X65614Y-58785D01*
X65614Y-58928D01*
X65585Y-58985D01*
X65557Y-59014D01*
X65500Y-59042D01*
X65328Y-59042D01*
X65271Y-59014D01*
X65242Y-58985D01*
X65985Y-58442D02*
X66042Y-58442D01*
X66100Y-58471D01*
X66128Y-58500D01*
X66157Y-58557D01*
X66185Y-58671D01*
X66185Y-58814D01*
X66157Y-58928D01*
X66128Y-58985D01*
X66100Y-59014D01*
X66042Y-59042D01*
X65985Y-59042D01*
X65928Y-59014D01*
X65900Y-58985D01*
X65871Y-58928D01*
X65842Y-58814D01*
X65842Y-58671D01*
X65871Y-58557D01*
X65900Y-58500D01*
X65928Y-58471D01*
X65985Y-58442D01*
X66700Y-58642D02*
X66700Y-59042D01*
X66557Y-58414D02*
X66414Y-58842D01*
X66785Y-58842D01*
X66985Y-58500D02*
X67014Y-58471D01*
X67071Y-58442D01*
X67214Y-58442D01*
X67271Y-58471D01*
X67300Y-58500D01*
X67328Y-58557D01*
X67328Y-58614D01*
X67300Y-58700D01*
X66957Y-59042D01*
X67328Y-59042D01*
X78342Y-58442D02*
X77742Y-58442D01*
X78342Y-58100D02*
X78000Y-58357D01*
X77742Y-58100D02*
X78085Y-58442D01*
X77942Y-57585D02*
X78342Y-57585D01*
X77714Y-57728D02*
X78142Y-57871D01*
X78142Y-57500D01*
X53142Y-46042D02*
X52542Y-46042D01*
X52542Y-45814D01*
X52571Y-45757D01*
X52600Y-45728D01*
X52657Y-45700D01*
X52742Y-45700D01*
X52800Y-45728D01*
X52828Y-45757D01*
X52857Y-45814D01*
X52857Y-46042D01*
X53142Y-45128D02*
X53142Y-45471D01*
X53142Y-45300D02*
X52542Y-45300D01*
X52628Y-45357D01*
X52685Y-45414D01*
X52714Y-45471D01*
X53342Y-57242D02*
X52742Y-57242D01*
X52742Y-57014D01*
X52771Y-56957D01*
X52800Y-56928D01*
X52857Y-56900D01*
X52942Y-56900D01*
X53000Y-56928D01*
X53028Y-56957D01*
X53057Y-57014D01*
X53057Y-57242D01*
X52800Y-56671D02*
X52771Y-56642D01*
X52742Y-56585D01*
X52742Y-56442D01*
X52771Y-56385D01*
X52800Y-56357D01*
X52857Y-56328D01*
X52914Y-56328D01*
X53000Y-56357D01*
X53342Y-56700D01*
X53342Y-56328D01*
M02*
