G04 (created by PCBNEW (2013-07-07 BZR 4022)-stable) date 5/6/2015 4:58:19 PM*
%MOIN*%
G04 Gerber Fmt 3.4, Leading zero omitted, Abs format*
%FSLAX34Y34*%
G01*
G70*
G90*
G04 APERTURE LIST*
%ADD10C,0.005*%
%ADD11C,0.00393701*%
%ADD12C,0.00787402*%
%ADD13C,0.011811*%
G04 APERTURE END LIST*
G54D10*
G54D11*
X81200Y-38600D02*
X81200Y-39600D01*
X80400Y-38600D02*
X81200Y-38600D01*
X80400Y-64900D02*
X81200Y-64900D01*
X48300Y-64900D02*
X47800Y-64900D01*
X47800Y-38600D02*
X48200Y-38600D01*
X47800Y-39600D02*
X47800Y-38600D01*
X48500Y-64900D02*
X49400Y-64900D01*
X48200Y-64900D02*
X48700Y-64900D01*
X48700Y-64900D02*
X48200Y-64900D01*
X48600Y-64900D02*
X48200Y-64900D01*
X48400Y-64900D02*
X48200Y-64900D01*
X48900Y-64900D02*
X48200Y-64900D01*
X47800Y-39500D02*
X47800Y-64900D01*
X80400Y-38600D02*
X48200Y-38600D01*
X81200Y-64900D02*
X81200Y-39600D01*
X48900Y-64900D02*
X80400Y-64900D01*
G54D12*
X60542Y-41342D02*
X60857Y-41657D01*
X60857Y-41342D02*
X60542Y-41657D01*
X60542Y-44342D02*
X60857Y-44657D01*
X60857Y-44342D02*
X60542Y-44657D01*
X60542Y-50542D02*
X60857Y-50857D01*
X60857Y-50542D02*
X60542Y-50857D01*
X60542Y-53542D02*
X60857Y-53857D01*
X60857Y-53542D02*
X60542Y-53857D01*
X60542Y-60142D02*
X60857Y-60457D01*
X60857Y-60142D02*
X60542Y-60457D01*
X60542Y-63142D02*
X60857Y-63457D01*
X60857Y-63142D02*
X60542Y-63457D01*
X63542Y-41342D02*
X63857Y-41657D01*
X63857Y-41342D02*
X63542Y-41657D01*
X63542Y-44342D02*
X63857Y-44657D01*
X63857Y-44342D02*
X63542Y-44657D01*
X63542Y-50542D02*
X63857Y-50857D01*
X63857Y-50542D02*
X63542Y-50857D01*
X63542Y-53542D02*
X63857Y-53857D01*
X63857Y-53542D02*
X63542Y-53857D01*
X63542Y-60142D02*
X63857Y-60457D01*
X63857Y-60142D02*
X63542Y-60457D01*
X63542Y-63142D02*
X63857Y-63457D01*
X63857Y-63142D02*
X63542Y-63457D01*
X65542Y-41342D02*
X65857Y-41657D01*
X65857Y-41342D02*
X65542Y-41657D01*
X65542Y-44342D02*
X65857Y-44657D01*
X65857Y-44342D02*
X65542Y-44657D01*
X65542Y-50542D02*
X65857Y-50857D01*
X65857Y-50542D02*
X65542Y-50857D01*
X65542Y-53542D02*
X65857Y-53857D01*
X65857Y-53542D02*
X65542Y-53857D01*
X65542Y-60142D02*
X65857Y-60457D01*
X65857Y-60142D02*
X65542Y-60457D01*
X65542Y-63142D02*
X65857Y-63457D01*
X65857Y-63142D02*
X65542Y-63457D01*
X67542Y-41342D02*
X67857Y-41657D01*
X67857Y-41342D02*
X67542Y-41657D01*
X67542Y-44342D02*
X67857Y-44657D01*
X67857Y-44342D02*
X67542Y-44657D01*
X67542Y-50542D02*
X67857Y-50857D01*
X67857Y-50542D02*
X67542Y-50857D01*
X67542Y-53542D02*
X67857Y-53857D01*
X67857Y-53542D02*
X67542Y-53857D01*
X67542Y-60142D02*
X67857Y-60457D01*
X67857Y-60142D02*
X67542Y-60457D01*
X67542Y-63142D02*
X67857Y-63457D01*
X67857Y-63142D02*
X67542Y-63457D01*
X50846Y-44600D02*
G75*
G03X50846Y-44600I-246J0D01*
G74*
G01*
X50846Y-46600D02*
G75*
G03X50846Y-46600I-246J0D01*
G74*
G01*
X51046Y-53800D02*
G75*
G03X51046Y-53800I-246J0D01*
G74*
G01*
X51046Y-55800D02*
G75*
G03X51046Y-55800I-246J0D01*
G74*
G01*
X51046Y-57800D02*
G75*
G03X51046Y-57800I-246J0D01*
G74*
G01*
X51046Y-59800D02*
G75*
G03X51046Y-59800I-246J0D01*
G74*
G01*
X78246Y-50400D02*
G75*
G03X78246Y-50400I-246J0D01*
G74*
G01*
X78246Y-52400D02*
G75*
G03X78246Y-52400I-246J0D01*
G74*
G01*
X78246Y-54400D02*
G75*
G03X78246Y-54400I-246J0D01*
G74*
G01*
X49400Y-39412D02*
X49400Y-40987D01*
X48612Y-40200D02*
X50187Y-40200D01*
X49500Y-62412D02*
X49500Y-63987D01*
X48712Y-63200D02*
X50287Y-63200D01*
X79400Y-62512D02*
X79400Y-64087D01*
X78612Y-63300D02*
X80187Y-63300D01*
X79600Y-39512D02*
X79600Y-41087D01*
X78812Y-40300D02*
X80387Y-40300D01*
G54D13*
X48848Y-66696D02*
X48848Y-65515D01*
X49130Y-65515D01*
X49298Y-65572D01*
X49411Y-65684D01*
X49467Y-65797D01*
X49523Y-66022D01*
X49523Y-66190D01*
X49467Y-66415D01*
X49411Y-66528D01*
X49298Y-66640D01*
X49130Y-66696D01*
X48848Y-66696D01*
X50030Y-66696D02*
X50030Y-65909D01*
X50030Y-66134D02*
X50086Y-66022D01*
X50142Y-65965D01*
X50255Y-65909D01*
X50367Y-65909D01*
X50761Y-66696D02*
X50761Y-65909D01*
X50761Y-65515D02*
X50704Y-65572D01*
X50761Y-65628D01*
X50817Y-65572D01*
X50761Y-65515D01*
X50761Y-65628D01*
X51492Y-66696D02*
X51379Y-66640D01*
X51323Y-66528D01*
X51323Y-65515D01*
X52111Y-66696D02*
X51998Y-66640D01*
X51942Y-66528D01*
X51942Y-65515D01*
X53460Y-66696D02*
X53460Y-65515D01*
X53854Y-66359D01*
X54248Y-65515D01*
X54248Y-66696D01*
X55316Y-66696D02*
X55316Y-66078D01*
X55260Y-65965D01*
X55148Y-65909D01*
X54923Y-65909D01*
X54810Y-65965D01*
X55316Y-66640D02*
X55204Y-66696D01*
X54923Y-66696D01*
X54810Y-66640D01*
X54754Y-66528D01*
X54754Y-66415D01*
X54810Y-66303D01*
X54923Y-66247D01*
X55204Y-66247D01*
X55316Y-66190D01*
X55879Y-65909D02*
X55879Y-67090D01*
X55879Y-65965D02*
X55991Y-65909D01*
X56216Y-65909D01*
X56329Y-65965D01*
X56385Y-66022D01*
X56441Y-66134D01*
X56441Y-66471D01*
X56385Y-66584D01*
X56329Y-66640D01*
X56216Y-66696D01*
X55991Y-66696D01*
X55879Y-66640D01*
X56947Y-66584D02*
X57004Y-66640D01*
X56947Y-66696D01*
X56891Y-66640D01*
X56947Y-66584D01*
X56947Y-66696D01*
X56947Y-65965D02*
X57004Y-66022D01*
X56947Y-66078D01*
X56891Y-66022D01*
X56947Y-65965D01*
X56947Y-66078D01*
X47465Y-68541D02*
X47780Y-68856D01*
X47780Y-68541D02*
X47465Y-68856D01*
X49073Y-67996D02*
X49186Y-67996D01*
X49298Y-68052D01*
X49355Y-68108D01*
X49411Y-68221D01*
X49467Y-68446D01*
X49467Y-68727D01*
X49411Y-68952D01*
X49355Y-69064D01*
X49298Y-69121D01*
X49186Y-69177D01*
X49073Y-69177D01*
X48961Y-69121D01*
X48905Y-69064D01*
X48848Y-68952D01*
X48792Y-68727D01*
X48792Y-68446D01*
X48848Y-68221D01*
X48905Y-68108D01*
X48961Y-68052D01*
X49073Y-67996D01*
X49973Y-69064D02*
X50030Y-69121D01*
X49973Y-69177D01*
X49917Y-69121D01*
X49973Y-69064D01*
X49973Y-69177D01*
X50704Y-68502D02*
X50592Y-68446D01*
X50536Y-68389D01*
X50479Y-68277D01*
X50479Y-68221D01*
X50536Y-68108D01*
X50592Y-68052D01*
X50704Y-67996D01*
X50929Y-67996D01*
X51042Y-68052D01*
X51098Y-68108D01*
X51154Y-68221D01*
X51154Y-68277D01*
X51098Y-68389D01*
X51042Y-68446D01*
X50929Y-68502D01*
X50704Y-68502D01*
X50592Y-68558D01*
X50536Y-68614D01*
X50479Y-68727D01*
X50479Y-68952D01*
X50536Y-69064D01*
X50592Y-69121D01*
X50704Y-69177D01*
X50929Y-69177D01*
X51042Y-69121D01*
X51098Y-69064D01*
X51154Y-68952D01*
X51154Y-68727D01*
X51098Y-68614D01*
X51042Y-68558D01*
X50929Y-68502D01*
X51886Y-67996D02*
X51998Y-67996D01*
X52111Y-68052D01*
X52167Y-68108D01*
X52223Y-68221D01*
X52279Y-68446D01*
X52279Y-68727D01*
X52223Y-68952D01*
X52167Y-69064D01*
X52111Y-69121D01*
X51998Y-69177D01*
X51886Y-69177D01*
X51773Y-69121D01*
X51717Y-69064D01*
X51661Y-68952D01*
X51604Y-68727D01*
X51604Y-68446D01*
X51661Y-68221D01*
X51717Y-68108D01*
X51773Y-68052D01*
X51886Y-67996D01*
X52785Y-69177D02*
X52785Y-68389D01*
X52785Y-68502D02*
X52842Y-68446D01*
X52954Y-68389D01*
X53123Y-68389D01*
X53235Y-68446D01*
X53292Y-68558D01*
X53292Y-69177D01*
X53292Y-68558D02*
X53348Y-68446D01*
X53460Y-68389D01*
X53629Y-68389D01*
X53742Y-68446D01*
X53798Y-68558D01*
X53798Y-69177D01*
X54360Y-69177D02*
X54360Y-68389D01*
X54360Y-68502D02*
X54416Y-68446D01*
X54529Y-68389D01*
X54698Y-68389D01*
X54810Y-68446D01*
X54866Y-68558D01*
X54866Y-69177D01*
X54866Y-68558D02*
X54923Y-68446D01*
X55035Y-68389D01*
X55204Y-68389D01*
X55316Y-68446D01*
X55373Y-68558D01*
X55373Y-69177D01*
X57679Y-67939D02*
X56666Y-69458D01*
X59197Y-67996D02*
X59310Y-67996D01*
X59422Y-68052D01*
X59478Y-68108D01*
X59535Y-68221D01*
X59591Y-68446D01*
X59591Y-68727D01*
X59535Y-68952D01*
X59478Y-69064D01*
X59422Y-69121D01*
X59310Y-69177D01*
X59197Y-69177D01*
X59085Y-69121D01*
X59028Y-69064D01*
X58972Y-68952D01*
X58916Y-68727D01*
X58916Y-68446D01*
X58972Y-68221D01*
X59028Y-68108D01*
X59085Y-68052D01*
X59197Y-67996D01*
X60097Y-69064D02*
X60153Y-69121D01*
X60097Y-69177D01*
X60041Y-69121D01*
X60097Y-69064D01*
X60097Y-69177D01*
X60884Y-67996D02*
X60997Y-67996D01*
X61109Y-68052D01*
X61166Y-68108D01*
X61222Y-68221D01*
X61278Y-68446D01*
X61278Y-68727D01*
X61222Y-68952D01*
X61166Y-69064D01*
X61109Y-69121D01*
X60997Y-69177D01*
X60884Y-69177D01*
X60772Y-69121D01*
X60716Y-69064D01*
X60659Y-68952D01*
X60603Y-68727D01*
X60603Y-68446D01*
X60659Y-68221D01*
X60716Y-68108D01*
X60772Y-68052D01*
X60884Y-67996D01*
X61672Y-67996D02*
X62403Y-67996D01*
X62009Y-68446D01*
X62178Y-68446D01*
X62291Y-68502D01*
X62347Y-68558D01*
X62403Y-68671D01*
X62403Y-68952D01*
X62347Y-69064D01*
X62291Y-69121D01*
X62178Y-69177D01*
X61841Y-69177D01*
X61728Y-69121D01*
X61672Y-69064D01*
X62853Y-68108D02*
X62909Y-68052D01*
X63022Y-67996D01*
X63303Y-67996D01*
X63415Y-68052D01*
X63472Y-68108D01*
X63528Y-68221D01*
X63528Y-68333D01*
X63472Y-68502D01*
X62797Y-69177D01*
X63528Y-69177D01*
X63978Y-67996D02*
X63978Y-68221D01*
X64428Y-67996D02*
X64428Y-68221D01*
X66171Y-69627D02*
X66115Y-69570D01*
X66003Y-69402D01*
X65946Y-69289D01*
X65890Y-69121D01*
X65834Y-68839D01*
X65834Y-68614D01*
X65890Y-68333D01*
X65946Y-68164D01*
X66003Y-68052D01*
X66115Y-67883D01*
X66171Y-67827D01*
X66565Y-68108D02*
X66621Y-68052D01*
X66734Y-67996D01*
X67015Y-67996D01*
X67127Y-68052D01*
X67184Y-68108D01*
X67240Y-68221D01*
X67240Y-68333D01*
X67184Y-68502D01*
X66509Y-69177D01*
X67240Y-69177D01*
X68252Y-68389D02*
X68252Y-69177D01*
X67971Y-67939D02*
X67690Y-68783D01*
X68421Y-68783D01*
X69771Y-69177D02*
X69771Y-67996D01*
X70277Y-69177D02*
X70277Y-68558D01*
X70221Y-68446D01*
X70108Y-68389D01*
X69940Y-68389D01*
X69827Y-68446D01*
X69771Y-68502D01*
X71008Y-69177D02*
X70896Y-69121D01*
X70839Y-69064D01*
X70783Y-68952D01*
X70783Y-68614D01*
X70839Y-68502D01*
X70896Y-68446D01*
X71008Y-68389D01*
X71177Y-68389D01*
X71289Y-68446D01*
X71346Y-68502D01*
X71402Y-68614D01*
X71402Y-68952D01*
X71346Y-69064D01*
X71289Y-69121D01*
X71177Y-69177D01*
X71008Y-69177D01*
X72077Y-69177D02*
X71964Y-69121D01*
X71908Y-69008D01*
X71908Y-67996D01*
X72977Y-69121D02*
X72864Y-69177D01*
X72639Y-69177D01*
X72527Y-69121D01*
X72470Y-69008D01*
X72470Y-68558D01*
X72527Y-68446D01*
X72639Y-68389D01*
X72864Y-68389D01*
X72977Y-68446D01*
X73033Y-68558D01*
X73033Y-68671D01*
X72470Y-68783D01*
X73483Y-69121D02*
X73595Y-69177D01*
X73820Y-69177D01*
X73933Y-69121D01*
X73989Y-69008D01*
X73989Y-68952D01*
X73933Y-68839D01*
X73820Y-68783D01*
X73652Y-68783D01*
X73539Y-68727D01*
X73483Y-68614D01*
X73483Y-68558D01*
X73539Y-68446D01*
X73652Y-68389D01*
X73820Y-68389D01*
X73933Y-68446D01*
X74383Y-69627D02*
X74439Y-69570D01*
X74551Y-69402D01*
X74608Y-69289D01*
X74664Y-69121D01*
X74720Y-68839D01*
X74720Y-68614D01*
X74664Y-68333D01*
X74608Y-68164D01*
X74551Y-68052D01*
X74439Y-67883D01*
X74383Y-67827D01*
G54D12*
X47780Y-70258D02*
G75*
G03X47780Y-70258I-246J0D01*
G74*
G01*
G54D13*
X49467Y-70736D02*
X48792Y-70736D01*
X49130Y-70736D02*
X49130Y-69555D01*
X49017Y-69723D01*
X48905Y-69836D01*
X48792Y-69892D01*
X49973Y-70623D02*
X50030Y-70680D01*
X49973Y-70736D01*
X49917Y-70680D01*
X49973Y-70623D01*
X49973Y-70736D01*
X50479Y-69667D02*
X50536Y-69611D01*
X50648Y-69555D01*
X50929Y-69555D01*
X51042Y-69611D01*
X51098Y-69667D01*
X51154Y-69780D01*
X51154Y-69892D01*
X51098Y-70061D01*
X50423Y-70736D01*
X51154Y-70736D01*
X52223Y-69555D02*
X51661Y-69555D01*
X51604Y-70117D01*
X51661Y-70061D01*
X51773Y-70005D01*
X52054Y-70005D01*
X52167Y-70061D01*
X52223Y-70117D01*
X52279Y-70230D01*
X52279Y-70511D01*
X52223Y-70623D01*
X52167Y-70680D01*
X52054Y-70736D01*
X51773Y-70736D01*
X51661Y-70680D01*
X51604Y-70623D01*
X52785Y-70736D02*
X52785Y-69948D01*
X52785Y-70061D02*
X52842Y-70005D01*
X52954Y-69948D01*
X53123Y-69948D01*
X53235Y-70005D01*
X53292Y-70117D01*
X53292Y-70736D01*
X53292Y-70117D02*
X53348Y-70005D01*
X53460Y-69948D01*
X53629Y-69948D01*
X53742Y-70005D01*
X53798Y-70117D01*
X53798Y-70736D01*
X54360Y-70736D02*
X54360Y-69948D01*
X54360Y-70061D02*
X54416Y-70005D01*
X54529Y-69948D01*
X54698Y-69948D01*
X54810Y-70005D01*
X54866Y-70117D01*
X54866Y-70736D01*
X54866Y-70117D02*
X54923Y-70005D01*
X55035Y-69948D01*
X55204Y-69948D01*
X55316Y-70005D01*
X55373Y-70117D01*
X55373Y-70736D01*
X57679Y-69498D02*
X56666Y-71017D01*
X59197Y-69555D02*
X59310Y-69555D01*
X59422Y-69611D01*
X59478Y-69667D01*
X59535Y-69780D01*
X59591Y-70005D01*
X59591Y-70286D01*
X59535Y-70511D01*
X59478Y-70623D01*
X59422Y-70680D01*
X59310Y-70736D01*
X59197Y-70736D01*
X59085Y-70680D01*
X59028Y-70623D01*
X58972Y-70511D01*
X58916Y-70286D01*
X58916Y-70005D01*
X58972Y-69780D01*
X59028Y-69667D01*
X59085Y-69611D01*
X59197Y-69555D01*
X60097Y-70623D02*
X60153Y-70680D01*
X60097Y-70736D01*
X60041Y-70680D01*
X60097Y-70623D01*
X60097Y-70736D01*
X60884Y-69555D02*
X60997Y-69555D01*
X61109Y-69611D01*
X61166Y-69667D01*
X61222Y-69780D01*
X61278Y-70005D01*
X61278Y-70286D01*
X61222Y-70511D01*
X61166Y-70623D01*
X61109Y-70680D01*
X60997Y-70736D01*
X60884Y-70736D01*
X60772Y-70680D01*
X60716Y-70623D01*
X60659Y-70511D01*
X60603Y-70286D01*
X60603Y-70005D01*
X60659Y-69780D01*
X60716Y-69667D01*
X60772Y-69611D01*
X60884Y-69555D01*
X62291Y-69948D02*
X62291Y-70736D01*
X62009Y-69498D02*
X61728Y-70342D01*
X62459Y-70342D01*
X62965Y-70736D02*
X63190Y-70736D01*
X63303Y-70680D01*
X63359Y-70623D01*
X63472Y-70455D01*
X63528Y-70230D01*
X63528Y-69780D01*
X63472Y-69667D01*
X63415Y-69611D01*
X63303Y-69555D01*
X63078Y-69555D01*
X62965Y-69611D01*
X62909Y-69667D01*
X62853Y-69780D01*
X62853Y-70061D01*
X62909Y-70173D01*
X62965Y-70230D01*
X63078Y-70286D01*
X63303Y-70286D01*
X63415Y-70230D01*
X63472Y-70173D01*
X63528Y-70061D01*
X63978Y-69555D02*
X63978Y-69780D01*
X64428Y-69555D02*
X64428Y-69780D01*
X66171Y-71186D02*
X66115Y-71130D01*
X66003Y-70961D01*
X65946Y-70848D01*
X65890Y-70680D01*
X65834Y-70398D01*
X65834Y-70173D01*
X65890Y-69892D01*
X65946Y-69723D01*
X66003Y-69611D01*
X66115Y-69442D01*
X66171Y-69386D01*
X66677Y-70736D02*
X66902Y-70736D01*
X67015Y-70680D01*
X67071Y-70623D01*
X67184Y-70455D01*
X67240Y-70230D01*
X67240Y-69780D01*
X67184Y-69667D01*
X67127Y-69611D01*
X67015Y-69555D01*
X66790Y-69555D01*
X66677Y-69611D01*
X66621Y-69667D01*
X66565Y-69780D01*
X66565Y-70061D01*
X66621Y-70173D01*
X66677Y-70230D01*
X66790Y-70286D01*
X67015Y-70286D01*
X67127Y-70230D01*
X67184Y-70173D01*
X67240Y-70061D01*
X68646Y-70736D02*
X68646Y-69555D01*
X69152Y-70736D02*
X69152Y-70117D01*
X69096Y-70005D01*
X68983Y-69948D01*
X68815Y-69948D01*
X68702Y-70005D01*
X68646Y-70061D01*
X69883Y-70736D02*
X69771Y-70680D01*
X69715Y-70623D01*
X69658Y-70511D01*
X69658Y-70173D01*
X69715Y-70061D01*
X69771Y-70005D01*
X69883Y-69948D01*
X70052Y-69948D01*
X70165Y-70005D01*
X70221Y-70061D01*
X70277Y-70173D01*
X70277Y-70511D01*
X70221Y-70623D01*
X70165Y-70680D01*
X70052Y-70736D01*
X69883Y-70736D01*
X70952Y-70736D02*
X70839Y-70680D01*
X70783Y-70567D01*
X70783Y-69555D01*
X71852Y-70680D02*
X71739Y-70736D01*
X71514Y-70736D01*
X71402Y-70680D01*
X71346Y-70567D01*
X71346Y-70117D01*
X71402Y-70005D01*
X71514Y-69948D01*
X71739Y-69948D01*
X71852Y-70005D01*
X71908Y-70117D01*
X71908Y-70230D01*
X71346Y-70342D01*
X72358Y-70680D02*
X72470Y-70736D01*
X72695Y-70736D01*
X72808Y-70680D01*
X72864Y-70567D01*
X72864Y-70511D01*
X72808Y-70398D01*
X72695Y-70342D01*
X72527Y-70342D01*
X72414Y-70286D01*
X72358Y-70173D01*
X72358Y-70117D01*
X72414Y-70005D01*
X72527Y-69948D01*
X72695Y-69948D01*
X72808Y-70005D01*
X73258Y-71186D02*
X73314Y-71130D01*
X73427Y-70961D01*
X73483Y-70848D01*
X73539Y-70680D01*
X73595Y-70398D01*
X73595Y-70173D01*
X73539Y-69892D01*
X73483Y-69723D01*
X73427Y-69611D01*
X73314Y-69442D01*
X73258Y-69386D01*
X46992Y-71029D02*
X46992Y-72604D01*
X46205Y-71817D02*
X47780Y-71817D01*
X49355Y-71507D02*
X49355Y-72295D01*
X49073Y-71058D02*
X48792Y-71901D01*
X49523Y-71901D01*
X49973Y-72182D02*
X50030Y-72239D01*
X49973Y-72295D01*
X49917Y-72239D01*
X49973Y-72182D01*
X49973Y-72295D01*
X50761Y-71114D02*
X50873Y-71114D01*
X50986Y-71170D01*
X51042Y-71226D01*
X51098Y-71339D01*
X51154Y-71564D01*
X51154Y-71845D01*
X51098Y-72070D01*
X51042Y-72182D01*
X50986Y-72239D01*
X50873Y-72295D01*
X50761Y-72295D01*
X50648Y-72239D01*
X50592Y-72182D01*
X50536Y-72070D01*
X50479Y-71845D01*
X50479Y-71564D01*
X50536Y-71339D01*
X50592Y-71226D01*
X50648Y-71170D01*
X50761Y-71114D01*
X51886Y-71114D02*
X51998Y-71114D01*
X52111Y-71170D01*
X52167Y-71226D01*
X52223Y-71339D01*
X52279Y-71564D01*
X52279Y-71845D01*
X52223Y-72070D01*
X52167Y-72182D01*
X52111Y-72239D01*
X51998Y-72295D01*
X51886Y-72295D01*
X51773Y-72239D01*
X51717Y-72182D01*
X51661Y-72070D01*
X51604Y-71845D01*
X51604Y-71564D01*
X51661Y-71339D01*
X51717Y-71226D01*
X51773Y-71170D01*
X51886Y-71114D01*
X52785Y-72295D02*
X52785Y-71507D01*
X52785Y-71620D02*
X52842Y-71564D01*
X52954Y-71507D01*
X53123Y-71507D01*
X53235Y-71564D01*
X53292Y-71676D01*
X53292Y-72295D01*
X53292Y-71676D02*
X53348Y-71564D01*
X53460Y-71507D01*
X53629Y-71507D01*
X53742Y-71564D01*
X53798Y-71676D01*
X53798Y-72295D01*
X54360Y-72295D02*
X54360Y-71507D01*
X54360Y-71620D02*
X54416Y-71564D01*
X54529Y-71507D01*
X54698Y-71507D01*
X54810Y-71564D01*
X54866Y-71676D01*
X54866Y-72295D01*
X54866Y-71676D02*
X54923Y-71564D01*
X55035Y-71507D01*
X55204Y-71507D01*
X55316Y-71564D01*
X55373Y-71676D01*
X55373Y-72295D01*
X57679Y-71058D02*
X56666Y-72576D01*
X59197Y-71114D02*
X59310Y-71114D01*
X59422Y-71170D01*
X59478Y-71226D01*
X59535Y-71339D01*
X59591Y-71564D01*
X59591Y-71845D01*
X59535Y-72070D01*
X59478Y-72182D01*
X59422Y-72239D01*
X59310Y-72295D01*
X59197Y-72295D01*
X59085Y-72239D01*
X59028Y-72182D01*
X58972Y-72070D01*
X58916Y-71845D01*
X58916Y-71564D01*
X58972Y-71339D01*
X59028Y-71226D01*
X59085Y-71170D01*
X59197Y-71114D01*
X60097Y-72182D02*
X60153Y-72239D01*
X60097Y-72295D01*
X60041Y-72239D01*
X60097Y-72182D01*
X60097Y-72295D01*
X61278Y-72295D02*
X60603Y-72295D01*
X60941Y-72295D02*
X60941Y-71114D01*
X60828Y-71283D01*
X60716Y-71395D01*
X60603Y-71451D01*
X62347Y-71114D02*
X61784Y-71114D01*
X61728Y-71676D01*
X61784Y-71620D01*
X61897Y-71564D01*
X62178Y-71564D01*
X62291Y-71620D01*
X62347Y-71676D01*
X62403Y-71789D01*
X62403Y-72070D01*
X62347Y-72182D01*
X62291Y-72239D01*
X62178Y-72295D01*
X61897Y-72295D01*
X61784Y-72239D01*
X61728Y-72182D01*
X62797Y-71114D02*
X63584Y-71114D01*
X63078Y-72295D01*
X63978Y-71114D02*
X63978Y-71339D01*
X64428Y-71114D02*
X64428Y-71339D01*
X66171Y-72745D02*
X66115Y-72689D01*
X66003Y-72520D01*
X65946Y-72407D01*
X65890Y-72239D01*
X65834Y-71957D01*
X65834Y-71732D01*
X65890Y-71451D01*
X65946Y-71283D01*
X66003Y-71170D01*
X66115Y-71001D01*
X66171Y-70945D01*
X67127Y-71507D02*
X67127Y-72295D01*
X66846Y-71058D02*
X66565Y-71901D01*
X67296Y-71901D01*
X68646Y-72295D02*
X68646Y-71114D01*
X69152Y-72295D02*
X69152Y-71676D01*
X69096Y-71564D01*
X68983Y-71507D01*
X68815Y-71507D01*
X68702Y-71564D01*
X68646Y-71620D01*
X69883Y-72295D02*
X69771Y-72239D01*
X69715Y-72182D01*
X69658Y-72070D01*
X69658Y-71732D01*
X69715Y-71620D01*
X69771Y-71564D01*
X69883Y-71507D01*
X70052Y-71507D01*
X70165Y-71564D01*
X70221Y-71620D01*
X70277Y-71732D01*
X70277Y-72070D01*
X70221Y-72182D01*
X70165Y-72239D01*
X70052Y-72295D01*
X69883Y-72295D01*
X70952Y-72295D02*
X70839Y-72239D01*
X70783Y-72126D01*
X70783Y-71114D01*
X71852Y-72239D02*
X71739Y-72295D01*
X71514Y-72295D01*
X71402Y-72239D01*
X71346Y-72126D01*
X71346Y-71676D01*
X71402Y-71564D01*
X71514Y-71507D01*
X71739Y-71507D01*
X71852Y-71564D01*
X71908Y-71676D01*
X71908Y-71789D01*
X71346Y-71901D01*
X72358Y-72239D02*
X72470Y-72295D01*
X72695Y-72295D01*
X72808Y-72239D01*
X72864Y-72126D01*
X72864Y-72070D01*
X72808Y-71957D01*
X72695Y-71901D01*
X72527Y-71901D01*
X72414Y-71845D01*
X72358Y-71732D01*
X72358Y-71676D01*
X72414Y-71564D01*
X72527Y-71507D01*
X72695Y-71507D01*
X72808Y-71564D01*
X73258Y-72745D02*
X73314Y-72689D01*
X73427Y-72520D01*
X73483Y-72407D01*
X73539Y-72239D01*
X73595Y-71957D01*
X73595Y-71732D01*
X73539Y-71451D01*
X73483Y-71283D01*
X73427Y-71170D01*
X73314Y-71001D01*
X73258Y-70945D01*
M02*
